<svg width="21" height="21" viewBox="0 0 21 21" fill="none" xmlns="http://www.w3.org/2000/svg">
<path d="M13.5898 16.5982C13.6508 16.6592 13.6992 16.7316 13.7321 16.8112C13.7651 16.8909 13.7821 16.9763 13.7821 17.0625C13.7821 17.1487 13.7651 17.2341 13.7321 17.3138C13.6992 17.3934 13.6508 17.4658 13.5898 17.5268C13.5288 17.5878 13.4565 17.6361 13.3768 17.6691C13.2971 17.7021 13.2117 17.7191 13.1255 17.7191C13.0393 17.7191 12.9539 17.7021 12.8742 17.6691C12.7946 17.6361 12.7222 17.5878 12.6612 17.5268L6.09872 10.9643C6.0377 10.9033 5.9893 10.831 5.95627 10.7513C5.92325 10.6716 5.90625 10.5862 5.90625 10.5C5.90625 10.4138 5.92325 10.3284 5.95627 10.2487C5.9893 10.169 6.0377 10.0966 6.09872 10.0357L12.6612 3.4732C12.7844 3.35006 12.9514 3.28088 13.1255 3.28088C13.2997 3.28088 13.4667 3.35006 13.5898 3.4732C13.713 3.59634 13.7821 3.76335 13.7821 3.9375C13.7821 4.11164 13.713 4.27866 13.5898 4.4018L7.49079 10.5L13.5898 16.5982Z" fill="#9B9B9B"/>
</svg>
