<svg width="33" height="33" viewBox="0 0 33 33" fill="none" xmlns="http://www.w3.org/2000/svg">
<rect width="33" height="33" rx="6" fill="black"/>
<path d="M12.3584 20.4149H4.72529C3.93518 20.4149 3.49779 19.9651 3.49779 19.3044C3.49779 18.6437 3.93518 18.1938 4.72529 18.1938H13.4589C15.2226 18.1938 15.5471 18.6718 15.5471 20.3587V21.6749C15.5471 22.4619 14.9091 23.0999 14.122 23.0999V23.0999C13.335 23.0999 12.697 22.4619 12.697 21.6749V20.7523C12.697 20.5414 12.5841 20.4149 12.3584 20.4149ZM11.0462 17.3785H3.79408C3.13095 17.3785 2.75 16.8443 2.75 16.3382C2.75 15.8322 3.07451 15.3542 3.79408 15.3542V15.3542C3.93435 15.3542 4.04805 15.2405 4.04805 15.1002V14.1734C4.04805 13.344 4.61242 12.9926 5.38843 12.9926C6.16444 12.9926 6.72881 13.344 6.72881 14.1734V14.7757C6.72881 15.0952 6.9878 15.3542 7.30729 15.3542V15.3542C7.62677 15.3542 7.88576 15.0952 7.88576 14.7757V14.1734C7.88576 13.344 8.45013 12.9926 9.22614 12.9926C10.0022 12.9926 10.5665 13.344 10.5665 14.1734V14.8745C10.5665 15.1394 10.7813 15.3542 11.0462 15.3542V15.3542C11.7658 15.3542 12.0903 15.8322 12.0903 16.3382C12.0903 16.8443 11.7094 17.3785 11.0462 17.3785ZM14.0515 17.6456C13.2645 17.6456 12.6265 17.0076 12.6265 16.2206V11.2916C12.6265 10.3779 13.3037 9.8999 14.0515 9.8999C14.7852 9.8999 15.4765 10.3919 15.4765 11.2916V16.2206C15.4765 17.0076 14.8385 17.6456 14.0515 17.6456V17.6456ZM10.5665 12.5005H3.9775C3.31437 12.5005 2.93342 11.9382 2.93342 11.4041C2.93342 10.8699 3.25793 10.3076 3.9775 10.3076H10.5665C11.2861 10.3076 11.6106 10.8699 11.6106 11.4041C11.6106 11.9382 11.2297 12.5005 10.5665 12.5005ZM29.1637 23.0999H19.005C17.8481 23.0999 17.2555 22.3689 17.2555 21.4411V21.3568C17.2555 20.4009 17.834 19.8386 19.005 19.8386H26.3286C26.4684 19.8386 26.5817 19.7253 26.5817 19.5855V19.5855C26.5817 19.4168 26.5252 19.3747 26.3277 19.3747H18.1444C17.6505 19.3747 17.3966 18.9951 17.3966 18.6437C17.3966 18.2922 17.6082 17.8986 18.1444 17.8986H27.9644C29.1355 17.8986 29.4882 18.3063 29.4882 19.1357V19.1357C29.4882 20.2304 28.6008 21.1178 27.5061 21.1178H20.5288C20.3454 21.1178 20.2749 21.2443 20.2749 21.3568C20.2749 21.4973 20.3454 21.5817 20.5288 21.5817H29.1637C29.6857 21.5817 29.8832 21.9753 29.8832 22.3549C29.8832 22.6782 29.6998 23.0999 29.1637 23.0999ZM18.2008 13.4143V13.4143C18.8193 13.4143 19.2651 12.8089 19.7573 12.4342C20.009 12.2426 20.3565 12.1491 20.7687 12.1491C21.0993 12.1491 21.3898 12.2156 21.6208 12.3486C22.2315 12.7002 22.7587 13.4143 23.4634 13.4143V13.4143C24.1681 13.4143 24.692 12.6967 25.3049 12.3489C25.5412 12.2148 25.8412 12.1491 26.1866 12.1491C26.5701 12.1491 26.8998 12.2386 27.1451 12.4176C27.6575 12.7915 28.1203 13.4143 28.7545 13.4143V13.4143C29.4741 13.4143 29.7139 13.8501 29.7139 14.2858C29.7139 14.7779 29.46 15.1855 28.7545 15.1855H18.2008C17.4953 15.1855 17.2131 14.7779 17.2131 14.2858C17.2131 13.8501 17.4812 13.4143 18.2008 13.4143ZM17.8481 15.6494H29.0649C29.7986 15.6494 30.0667 16.0852 30.0667 16.5491C30.0667 17.0552 29.7845 17.4488 29.0649 17.4488H17.8481C17.1426 17.4488 16.8604 17.0552 16.8604 16.5491C16.8604 16.0852 17.1285 15.6494 17.8481 15.6494ZM18.3842 10.0967H28.5147C29.2201 10.0967 29.5023 10.5325 29.5023 10.9823C29.5023 11.4884 29.206 11.8961 28.5147 11.8961H18.3842C17.6929 11.8961 17.4248 11.4884 17.4248 10.9823C17.4248 10.5325 17.6788 10.0967 18.3842 10.0967Z" fill="#D4D4D4"/>
</svg>
